<?xml version="1.0" encoding="utf-8"?>
<!-- Generator: Adobe Illustrator 22.0.1, SVG Export Plug-In . SVG Version: 6.00 Build 0)  -->
<!DOCTYPE svg PUBLIC "-//W3C//DTD SVG 1.1//EN" "http://www.w3.org/Graphics/SVG/1.1/DTD/svg11.dtd">
<svg version="1.1" id="Layer_1" xmlns="http://www.w3.org/2000/svg" xmlns:xlink="http://www.w3.org/1999/xlink" x="0px" y="0px"
	 viewBox="0 0 90.7 115.4" style="enable-background:new 0 0 90.7 115.4;" xml:space="preserve">
<style type="text/css">
	.st0{clip-path:url(#SVGID_2_);fill:#807EBC;}
	.st1{clip-path:url(#SVGID_2_);fill:#FCBF59;}
	
		.st2{clip-path:url(#SVGID_4_);fill:none;stroke:#FBD487;stroke-width:7;stroke-linecap:round;stroke-linejoin:round;stroke-miterlimit:10;}
</style>
<g>
	<defs>
		<rect id="SVGID_1_" x="-410.9" y="-1506.9" width="1440" height="2594"/>
	</defs>
	<clipPath id="SVGID_2_">
		<use xlink:href="#SVGID_1_"  style="overflow:visible;"/>
	</clipPath>
	<path class="st0" d="M41.6,23H12.3C11,23,10,22,10,20.8s1-2.2,2.2-2.2h29.3c1.2,0,2.2,1,2.2,2.2S42.9,23,41.6,23z"/>
	<path class="st0" d="M41.6,34.3H12.3c-1.2,0-2.2-1-2.2-2.2c0-1.2,1-2.2,2.2-2.2h29.3c1.2,0,2.2,1,2.2,2.2
		C43.9,33.3,42.9,34.3,41.6,34.3z"/>
	<path class="st0" d="M41.6,45.6H12.3c-1.2,0-2.2-1-2.2-2.2s1-2.2,2.2-2.2h29.3c1.2,0,2.2,1,2.2,2.2S42.9,45.6,41.6,45.6z"/>
	<path class="st0" d="M73.6,58H12.7c-1.2,0-2.2-1-2.2-2.2s1-2.2,2.2-2.2h60.9c1.2,0,2.2,1,2.2,2.2S74.8,58,73.6,58z"/>
	<path class="st0" d="M73.6,69.2H12.7c-1.2,0-2.2-1-2.2-2.2s1-2.2,2.2-2.2h60.9c1.2,0,2.2,1,2.2,2.2S74.8,69.2,73.6,69.2z"/>
	<path class="st0" d="M73.6,80.5H12.7c-1.2,0-2.2-1-2.2-2.2s1-2.2,2.2-2.2h60.9c1.2,0,2.2,1,2.2,2.2S74.8,80.5,73.6,80.5z"/>
	<path class="st0" d="M73.6,91H12.7c-1.2,0-2.2-1-2.2-2.2s1-2.2,2.2-2.2h60.9c1.2,0,2.2,1,2.2,2.2S74.8,91,73.6,91z"/>
	<path class="st0" d="M73.6,102.3H12.7c-1.2,0-2.2-1-2.2-2.2s1-2.2,2.2-2.2h60.9c1.2,0,2.2,1,2.2,2.2S74.8,102.3,73.6,102.3z"/>
	<path class="st1" d="M86.9,40.5H55.5c-1.7,0-3-1.3-3-3V3.3c0-1.2,0.8-2.3,1.9-2.8c1.2-0.4,2.5-0.1,3.3,0.8l31.4,34.2
		c0.8,0.9,1,2.1,0.5,3.2C89.2,39.8,88.1,40.5,86.9,40.5z M58.5,34.5h21.6L58.5,11V34.5z"/>
</g>
<g>
	<g>
		<defs>
			<rect id="SVGID_3_" x="-410.9" y="-1506.9" width="1440" height="2594"/>
		</defs>
		<clipPath id="SVGID_4_">
			<use xlink:href="#SVGID_3_"  style="overflow:visible;"/>
		</clipPath>
		<path class="st2" d="M9.7,3.4h44.1c1.7,0,3.3,0.7,4.5,2l28.9,31.3v68.7c0,3.4-2.7,6.1-6.1,6.1H9.7c-3.4,0-6.1-2.7-6.1-6.1V9.6
			C3.6,6.2,6.3,3.4,9.7,3.4z"/>
	</g>
</g>
</svg>
