<?xml version="1.0" encoding="utf-8"?>
<!-- Generator: Adobe Illustrator 22.0.1, SVG Export Plug-In . SVG Version: 6.00 Build 0)  -->
<!DOCTYPE svg PUBLIC "-//W3C//DTD SVG 1.1//EN" "http://www.w3.org/Graphics/SVG/1.1/DTD/svg11.dtd">
<svg version="1.1" id="Layer_1" xmlns="http://www.w3.org/2000/svg" xmlns:xlink="http://www.w3.org/1999/xlink" x="0px" y="0px"
	 viewBox="0 0 90.7 89.6" style="enable-background:new 0 0 90.7 89.6;" xml:space="preserve">
<style type="text/css">
	
		.st0{clip-path:url(#SVGID_2_);fill:none;stroke:#807EBC;stroke-width:10;stroke-linecap:round;stroke-linejoin:round;stroke-miterlimit:10;}
	.st1{clip-path:url(#SVGID_2_);fill:none;stroke:#FBD487;stroke-width:6;stroke-miterlimit:10;}
	.st2{clip-path:url(#SVGID_2_);fill:none;stroke:#807EBC;stroke-width:4;stroke-linecap:round;stroke-miterlimit:10;}
	
		.st3{clip-path:url(#SVGID_4_);fill:none;stroke:#807EBC;stroke-width:10;stroke-linecap:round;stroke-linejoin:round;stroke-miterlimit:10;}
	.st4{clip-path:url(#SVGID_4_);fill:none;stroke:#FBD487;stroke-width:6;stroke-miterlimit:10;}
	.st5{clip-path:url(#SVGID_4_);fill:none;stroke:#807EBC;stroke-width:4;stroke-linecap:round;stroke-miterlimit:10;}
	
		.st6{clip-path:url(#SVGID_6_);fill:none;stroke:#807EBC;stroke-width:10;stroke-linecap:round;stroke-linejoin:round;stroke-miterlimit:10;}
	.st7{clip-path:url(#SVGID_6_);fill:none;stroke:#FBD487;stroke-width:6;stroke-miterlimit:10;}
	.st8{clip-path:url(#SVGID_6_);fill:none;stroke:#807EBC;stroke-width:4;stroke-linecap:round;stroke-miterlimit:10;}
	
		.st9{clip-path:url(#SVGID_8_);fill:none;stroke:#807EBC;stroke-width:10;stroke-linecap:round;stroke-linejoin:round;stroke-miterlimit:10;}
	.st10{clip-path:url(#SVGID_8_);fill:none;stroke:#FBD487;stroke-width:6;stroke-miterlimit:10;}
	.st11{clip-path:url(#SVGID_8_);fill:none;stroke:#807EBC;stroke-width:4;stroke-linecap:round;stroke-miterlimit:10;}
	
		.st12{clip-path:url(#SVGID_10_);fill:none;stroke:#807EBC;stroke-width:10;stroke-linecap:round;stroke-linejoin:round;stroke-miterlimit:10;}
	.st13{clip-path:url(#SVGID_10_);fill:none;stroke:#FBD487;stroke-width:6;stroke-miterlimit:10;}
	.st14{clip-path:url(#SVGID_10_);fill:none;stroke:#807EBC;stroke-width:4;stroke-linecap:round;stroke-miterlimit:10;}
	
		.st15{clip-path:url(#SVGID_12_);fill:none;stroke:#807EBC;stroke-width:10;stroke-linecap:round;stroke-linejoin:round;stroke-miterlimit:10;}
	.st16{clip-path:url(#SVGID_12_);fill:none;stroke:#FBD487;stroke-width:6;stroke-miterlimit:10;}
	.st17{clip-path:url(#SVGID_12_);fill:none;stroke:#807EBC;stroke-width:4;stroke-linecap:round;stroke-miterlimit:10;}
	
		.st18{clip-path:url(#SVGID_14_);fill:none;stroke:#807EBC;stroke-width:10;stroke-linecap:round;stroke-linejoin:round;stroke-miterlimit:10;}
	.st19{clip-path:url(#SVGID_14_);fill:none;stroke:#FBD487;stroke-width:6;stroke-miterlimit:10;}
	.st20{clip-path:url(#SVGID_14_);fill:none;stroke:#807EBC;stroke-width:4;stroke-linecap:round;stroke-miterlimit:10;}
	
		.st21{clip-path:url(#SVGID_16_);fill:none;stroke:#807EBC;stroke-width:10;stroke-linecap:round;stroke-linejoin:round;stroke-miterlimit:10;}
	.st22{clip-path:url(#SVGID_16_);fill:none;stroke:#FBD487;stroke-width:6;stroke-miterlimit:10;}
	.st23{clip-path:url(#SVGID_16_);fill:none;stroke:#807EBC;stroke-width:4;stroke-linecap:round;stroke-miterlimit:10;}
	.st24{fill:#807EBC;}
	.st25{fill:#FBD487;}
</style>
<g>
	<defs>
		<rect id="SVGID_1_" x="-680" y="-1227.7" width="1440" height="2594"/>
	</defs>
	<clipPath id="SVGID_2_">
		<use xlink:href="#SVGID_1_"  style="overflow:visible;"/>
	</clipPath>
	<line class="st0" x1="298.5" y1="352.8" x2="333.8" y2="388"/>
	<circle class="st1" cx="271" cy="326.3" r="35"/>
	<path class="st2" d="M245,326.3c0,14.9,12.1,27,27,27"/>
	<path class="st2" d="M253,325.3c0,10.2,9.8,21,20,21"/>
</g>
<g>
	<defs>
		<rect id="SVGID_3_" x="-680" y="-1227.7" width="1440" height="2594"/>
	</defs>
	<clipPath id="SVGID_4_">
		<use xlink:href="#SVGID_3_"  style="overflow:visible;"/>
	</clipPath>
	<line class="st3" x1="298.5" y1="352.8" x2="333.8" y2="388"/>
	<circle class="st4" cx="271" cy="326.3" r="35"/>
	<path class="st5" d="M245,326.3c0,14.9,12.1,27,27,27"/>
	<path class="st5" d="M253,325.3c0,10.2,9.8,21,20,21"/>
</g>
<g>
	<defs>
		<rect id="SVGID_5_" x="-680" y="-1227.7" width="1440" height="2594"/>
	</defs>
	<clipPath id="SVGID_6_">
		<use xlink:href="#SVGID_5_"  style="overflow:visible;"/>
	</clipPath>
	<line class="st6" x1="298.5" y1="352.8" x2="333.8" y2="388"/>
	<circle class="st7" cx="271" cy="326.3" r="35"/>
	<path class="st8" d="M245,326.3c0,14.9,12.1,27,27,27"/>
	<path class="st8" d="M253,325.3c0,10.2,9.8,21,20,21"/>
</g>
<g>
	<defs>
		<rect id="SVGID_7_" x="-680" y="-1227.7" width="1440" height="2594"/>
	</defs>
	<clipPath id="SVGID_8_">
		<use xlink:href="#SVGID_7_"  style="overflow:visible;"/>
	</clipPath>
	<line class="st9" x1="298.5" y1="352.8" x2="333.8" y2="388"/>
	<circle class="st10" cx="271" cy="326.3" r="35"/>
	<path class="st11" d="M245,326.3c0,14.9,12.1,27,27,27"/>
	<path class="st11" d="M253,325.3c0,10.2,9.8,21,20,21"/>
</g>
<g>
	<defs>
		<rect id="SVGID_9_" x="-680" y="-1227.7" width="1440" height="2594"/>
	</defs>
	<clipPath id="SVGID_10_">
		<use xlink:href="#SVGID_9_"  style="overflow:visible;"/>
	</clipPath>
	<line class="st12" x1="298.5" y1="352.8" x2="333.8" y2="388"/>
	<circle class="st13" cx="271" cy="326.3" r="35"/>
	<path class="st14" d="M245,326.3c0,14.9,12.1,27,27,27"/>
	<path class="st14" d="M253,325.3c0,10.2,9.8,21,20,21"/>
</g>
<g>
	<defs>
		<rect id="SVGID_11_" x="-680" y="-1227.7" width="1440" height="2594"/>
	</defs>
	<clipPath id="SVGID_12_">
		<use xlink:href="#SVGID_11_"  style="overflow:visible;"/>
	</clipPath>
	<line class="st15" x1="298.5" y1="352.8" x2="333.8" y2="388"/>
	<circle class="st16" cx="271" cy="326.3" r="35"/>
	<path class="st17" d="M245,326.3c0,14.9,12.1,27,27,27"/>
	<path class="st17" d="M253,325.3c0,10.2,9.8,21,20,21"/>
</g>
<g>
	<defs>
		<rect id="SVGID_13_" x="-680" y="-1227.7" width="1440" height="2594"/>
	</defs>
	<clipPath id="SVGID_14_">
		<use xlink:href="#SVGID_13_"  style="overflow:visible;"/>
	</clipPath>
	<line class="st18" x1="298.5" y1="352.8" x2="333.8" y2="388"/>
	<circle class="st19" cx="271" cy="326.3" r="35"/>
	<path class="st20" d="M245,326.3c0,14.9,12.1,27,27,27"/>
	<path class="st20" d="M253,325.3c0,10.2,9.8,21,20,21"/>
</g>
<g>
	<defs>
		<rect id="SVGID_15_" x="-680" y="-1227.7" width="1440" height="2594"/>
	</defs>
	<clipPath id="SVGID_16_">
		<use xlink:href="#SVGID_15_"  style="overflow:visible;"/>
	</clipPath>
	<line class="st21" x1="298.5" y1="352.8" x2="333.8" y2="388"/>
	<circle class="st22" cx="271" cy="326.3" r="35"/>
	<path class="st23" d="M245,326.3c0,14.9,12.1,27,27,27"/>
	<path class="st23" d="M253,325.3c0,10.2,9.8,21,20,21"/>
</g>
<path class="st24" d="M86.2,89.6c-1.1,0-2.2-0.4-3-1.3L53,58.2c-1.7-1.7-1.7-4.4,0-6c1.7-1.7,4.4-1.7,6,0l30.2,30.1
	c1.7,1.7,1.7,4.4,0,6C88.3,89.2,87.2,89.6,86.2,89.6z"/>
<path class="st25" d="M32.5,65C14.6,65,0,50.4,0,32.5C0,14.6,14.6,0,32.5,0S65,14.6,65,32.5C65,50.4,50.4,65,32.5,65z M32.5,5.1
	C17.4,5.1,5.1,17.4,5.1,32.5c0,15.1,12.3,27.4,27.4,27.4c15.1,0,27.4-12.3,27.4-27.4C59.9,17.4,47.6,5.1,32.5,5.1z"/>
<path class="st24" d="M33.3,57.3c-13.7,0-24.8-11.1-24.8-24.8c0-0.9,0.8-1.7,1.7-1.7s1.7,0.8,1.7,1.7c0,11.8,9.6,21.4,21.4,21.4
	c0.9,0,1.7,0.8,1.7,1.7S34.3,57.3,33.3,57.3z"/>
<path class="st24" d="M34.2,51.3c-9.5,0-18.8-9.7-18.8-19.7c0-0.9,0.8-1.7,1.7-1.7s1.7,0.8,1.7,1.7c0,8,7.8,16.2,15.4,16.2
	c0.9,0,1.7,0.8,1.7,1.7S35.1,51.3,34.2,51.3z"/>
</svg>
